<svg id="Layer_1" data-name="Layer 1" xmlns="http://www.w3.org/2000/svg" xmlns:xlink="http://www.w3.org/1999/xlink" viewBox="0 0 600 300"><defs><style>.cls-1{fill:url(#linear-gradient);}.cls-2{fill:url(#linear-gradient-2);}.cls-3{fill:#88d498;}.cls-3,.cls-8{stroke:#88d498;}.cls-3,.cls-4,.cls-5,.cls-6,.cls-7,.cls-8{stroke-linecap:round;stroke-miterlimit:10;stroke-width:4px;}.cls-4,.cls-5,.cls-6,.cls-7,.cls-8{fill:none;}.cls-4{stroke:#9fdcac;}.cls-5{stroke:#b7e5c1;}.cls-6{stroke:#cfedd5;}.cls-7{stroke:#e7f6ea;}.cls-9{font-size:34px;}.cls-11,.cls-9{font-family:BebasNeue-Regular, Bebas Neue;}.cls-10{letter-spacing:-0.01em;}.cls-11{font-size:18px;}.cls-12{letter-spacing:0em;}.cls-13{letter-spacing:0em;}.cls-14{letter-spacing:-0.05em;}.cls-15{letter-spacing:0em;}.cls-16{letter-spacing:-0.05em;}.cls-17{letter-spacing:0em;}.cls-18{letter-spacing:0em;}.cls-19{letter-spacing:0em;}.cls-20{letter-spacing:-0.01em;}</style><linearGradient id="linear-gradient" y1="150" x2="600" y2="150" gradientUnits="userSpaceOnUse"><stop offset="0" stop-color="#e7f6ea"/><stop offset="0.68" stop-color="#e8f6eb"/><stop offset="1" stop-color="#fff"/></linearGradient><linearGradient id="linear-gradient-2" x1="472.54" y1="184.54" x2="525.11" y2="93.47" gradientUnits="userSpaceOnUse"><stop offset="0.39" stop-color="#88d498"/><stop offset="1" stop-color="#cfedd5"/></linearGradient></defs><title>howItWorks</title><rect class="cls-1" width="600" height="300"/><path class="cls-2" d="M534.45,172.88a47.84,47.84,0,1,0-82.11,0Z"/><line class="cls-3" x1="408.21" y1="172.88" x2="541.95" y2="172.88"/><path class="cls-4" d="M461.35,181.31c5.33-.56,13.29-1.23,23-1.34,17.79-.19,19.38,1.74,35.39,1.63,16.47-.12,19.95-2.21,37-1.63,7.37.25,13.38.87,17.25,1.34"/><path class="cls-5" d="M417.28,191.71a102.81,102.81,0,0,0,12.58.77c11.47,0,17.25-1.92,24.62-2.92,5-.68,17.08.74,41.26,3.57a94.61,94.61,0,0,0,24.62.33,89.19,89.19,0,0,0,9.55-1.75"/><path class="cls-6" d="M453.66,204.23a91.34,91.34,0,0,0,17.78,4.34c26.73,3.7,40.85-6.8,71.91-6.5a138.81,138.81,0,0,1,22.94,2.16"/><path class="cls-7" d="M408.21,220a17.64,17.64,0,0,1,7.3-2.53c9.72-1,13.23,7.7,24.46,10.4,4.77,1.14,11.06-.11,23.64-2.6,11.63-2.31,12.54-3.85,20.08-4.22,7.86-.39,10.09,1.13,18.89,1.13A77.81,77.81,0,0,0,520.84,220"/><line class="cls-8" x1="567.38" y1="166.18" x2="546.5" y2="166.18"/><line class="cls-8" x1="559.73" y1="106.81" x2="542.66" y2="118.78"/><line class="cls-8" x1="569.65" y1="136.41" x2="549.81" y2="142.88"/><line class="cls-8" x1="534.47" y1="84.32" x2="520.7" y2="99.95"/><line class="cls-8" x1="492.86" y1="92.85" x2="492.86" y2="72.06"/><line class="cls-8" x1="418.88" y1="166.62" x2="439.75" y2="166.62"/><line class="cls-8" x1="426.53" y1="107.25" x2="443.6" y2="119.22"/><line class="cls-8" x1="416.61" y1="136.85" x2="436.45" y2="143.32"/><line class="cls-8" x1="451.78" y1="84.76" x2="465.55" y2="100.39"/><text class="cls-9" transform="translate(66.82 52.61)">How This All Wor<tspan class="cls-10" x="192.23" y="0">k</tspan><tspan x="206.07" y="0">s.</tspan></text><text class="cls-11" transform="translate(33.87 95.45) scale(1.06 1)">Financial Forec<tspan class="cls-12" x="92.95" y="0">a</tspan><tspan x="100.11" y="0">st al</tspan><tspan class="cls-13" x="129.65" y="0">l</tspan><tspan x="135.77" y="0">ows users </tspan><tspan class="cls-13" x="199.87" y="0">t</tspan><tspan x="206.35" y="0">o cre</tspan><tspan class="cls-14" x="237.11" y="0">a</tspan><tspan x="243.5" y="0" xml:space="preserve">te  </tspan><tspan x="0" y="21.6">a cus</tspan><tspan class="cls-13" x="30.92" y="21.6">t</tspan><tspan x="37.4" y="21.6">omizable m</tspan><tspan class="cls-15" x="104.04" y="21.6">a</tspan><tspan x="111.22" y="21.6">chine learning model th</tspan><tspan class="cls-16" x="256.08" y="21.6">a</tspan><tspan x="262.47" y="21.6">t</tspan><tspan x="0" y="43.2">will use </tspan><tspan class="cls-17" x="52.09" y="43.2">c</tspan><tspan class="cls-18" x="59.02" y="43.2">on</tspan><tspan class="cls-15" x="73.91" y="43.2">v</tspan><tspan x="80.75" y="43.2">olutional neural ne</tspan><tspan class="cls-19" x="201.77" y="43.2">t</tspan><tspan x="208.4" y="43.2">wor</tspan><tspan class="cls-20" x="232.88" y="43.2">k</tspan><tspan x="240.2" y="43.2">s </tspan><tspan class="cls-13" x="249.78" y="43.2">t</tspan><tspan x="256.26" y="43.2">o</tspan><tspan x="0" y="64.8">Predict the of a specific future s</tspan><tspan class="cls-13" x="198.25" y="64.8">t</tspan><tspan x="204.73" y="64.8">ock price </tspan></text></svg>