<svg id="Layer_1" data-name="Layer 1" xmlns="http://www.w3.org/2000/svg" xmlns:xlink="http://www.w3.org/1999/xlink" viewBox="0 0 600 300"><defs><style>.cls-1{fill:url(#linear-gradient);}.cls-13,.cls-14,.cls-18,.cls-19,.cls-2,.cls-20,.cls-3,.cls-4,.cls-7,.cls-8,.cls-9{fill:none;}.cls-17,.cls-18,.cls-19,.cls-2,.cls-20,.cls-21,.cls-3{stroke:#88d498;}.cls-10,.cls-11,.cls-12,.cls-13,.cls-14,.cls-15,.cls-16,.cls-17,.cls-18,.cls-19,.cls-2,.cls-20,.cls-21,.cls-3,.cls-6,.cls-7,.cls-8,.cls-9{stroke-linecap:round;}.cls-2,.cls-3,.cls-4{stroke-miterlimit:10;}.cls-18,.cls-3,.cls-7{stroke-width:3px;}.cls-10,.cls-11,.cls-4,.cls-6,.cls-7,.cls-8,.cls-9{stroke:#fff;}.cls-22,.cls-5,.cls-6{fill:#fff;}.cls-10,.cls-11,.cls-12,.cls-13,.cls-14,.cls-15,.cls-16,.cls-17,.cls-18,.cls-19,.cls-20,.cls-21,.cls-6,.cls-7,.cls-8,.cls-9{stroke-linejoin:round;}.cls-13,.cls-19,.cls-8{stroke-width:2px;}.cls-10{fill:#d46b00;}.cls-11,.cls-17{fill:#88d498;}.cls-12,.cls-15{fill:#b3b3b3;}.cls-12,.cls-13,.cls-14,.cls-15,.cls-16{stroke:#b3b3b3;}.cls-12{stroke-width:0.5px;}.cls-16{fill:#4ebf66;}.cls-20{stroke-width:0.75px;}.cls-21{fill:#99d498;}.cls-22{font-size:23px;font-family:BebasNeue-Regular, Bebas Neue;}.cls-23{letter-spacing:-0.01em;}.cls-24{letter-spacing:-0.01em;}.cls-25{letter-spacing:0em;}</style><linearGradient id="linear-gradient" y1="150" x2="600" y2="150" gradientUnits="userSpaceOnUse"><stop offset="0" stop-color="#333"/><stop offset="1"/></linearGradient></defs><title>linkToHowItWorks</title><rect class="cls-1" width="600" height="300"/><line class="cls-2" x1="153.94" y1="15.76" x2="154.32" y2="50.29"/><line class="cls-2" x1="153.94" y1="15.76" x2="154.32" y2="50.29"/><polyline class="cls-3" points="160.41 16.29 154.02 22.67 147.71 16.37"/><polyline class="cls-3" points="160.67 48.66 154.28 42.28 147.97 48.58"/><line class="cls-2" x1="154.16" y1="15.87" x2="154.54" y2="50.4"/><line class="cls-2" x1="154.16" y1="15.87" x2="154.54" y2="50.4"/><polyline class="cls-2" points="160.63 16.4 154.24 22.77 147.93 16.47"/><polyline class="cls-2" points="160.89 48.76 154.5 42.38 148.19 48.68"/><line class="cls-2" x1="142.01" y1="21.45" x2="166.74" y2="45.6"/><line class="cls-2" x1="142.01" y1="21.45" x2="166.74" y2="45.6"/><polyline class="cls-3" points="146.95 17.27 146.95 26.28 138.03 26.28"/><polyline class="cls-3" points="170.07 39.97 161.03 39.97 161.03 48.87"/><line class="cls-2" x1="142.23" y1="21.37" x2="166.97" y2="45.52"/><line class="cls-2" x1="142.23" y1="21.37" x2="166.97" y2="45.52"/><polyline class="cls-2" points="147.18 17.18 147.18 26.2 138.26 26.2"/><polyline class="cls-2" points="170.3 39.88 161.26 39.88 161.26 48.79"/><line class="cls-2" x1="166.54" y1="20.63" x2="142.34" y2="45.32"/><line class="cls-2" x1="166.54" y1="20.63" x2="142.34" y2="45.32"/><polyline class="cls-3" points="170.73 25.57 161.7 25.57 161.7 16.67"/><polyline class="cls-3" points="147.99 48.64 147.99 39.62 139.06 39.62"/><line class="cls-2" x1="166.62" y1="20.86" x2="142.42" y2="45.55"/><line class="cls-2" x1="166.62" y1="20.86" x2="142.42" y2="45.55"/><polyline class="cls-2" points="170.81 25.8 161.78 25.8 161.78 16.89"/><polyline class="cls-2" points="148.07 48.87 148.07 39.85 139.15 39.85"/><line class="cls-2" x1="137.17" y1="33.49" x2="171.77" y2="33.11"/><line class="cls-2" x1="137.17" y1="33.49" x2="171.77" y2="33.11"/><polyline class="cls-3" points="137.7 27.03 144.09 33.41 137.78 39.71"/><polyline class="cls-3" points="170.13 26.77 163.74 33.15 170.05 39.45"/><line class="cls-2" x1="137.27" y1="33.27" x2="171.87" y2="32.89"/><line class="cls-2" x1="137.27" y1="33.27" x2="171.87" y2="32.89"/><polyline class="cls-2" points="137.8 26.82 144.19 33.19 137.88 39.49"/><polyline class="cls-2" points="170.23 26.55 163.84 32.93 170.15 39.23"/><line class="cls-2" x1="34.05" y1="134.2" x2="34.43" y2="168.73"/><line class="cls-2" x1="34.05" y1="134.2" x2="34.43" y2="168.73"/><polyline class="cls-3" points="40.51 134.73 34.12 141.11 27.81 134.81"/><polyline class="cls-3" points="40.77 167.1 34.39 160.72 28.08 167.02"/><line class="cls-2" x1="34.27" y1="134.3" x2="34.64" y2="168.84"/><line class="cls-2" x1="34.27" y1="134.3" x2="34.64" y2="168.84"/><polyline class="cls-2" points="40.73 134.84 34.34 141.21 28.03 134.91"/><polyline class="cls-2" points="40.99 167.2 34.6 160.82 28.3 167.12"/><line class="cls-2" x1="22.11" y1="139.89" x2="46.84" y2="164.04"/><line class="cls-2" x1="22.11" y1="139.89" x2="46.84" y2="164.04"/><polyline class="cls-3" points="27.06 135.71 27.06 144.72 18.13 144.72"/><polyline class="cls-3" points="50.17 158.41 41.14 158.41 41.14 167.31"/><line class="cls-2" x1="22.34" y1="139.81" x2="47.07" y2="163.96"/><line class="cls-2" x1="22.34" y1="139.81" x2="47.07" y2="163.96"/><polyline class="cls-2" points="27.29 135.62 27.29 144.64 18.36 144.64"/><polyline class="cls-2" points="50.4 158.32 41.37 158.32 41.37 167.23"/><line class="cls-2" x1="46.64" y1="139.07" x2="22.44" y2="163.76"/><line class="cls-2" x1="46.64" y1="139.07" x2="22.44" y2="163.76"/><polyline class="cls-3" points="50.84 144.01 41.8 144.01 41.8 135.1"/><polyline class="cls-3" points="28.09 167.08 28.09 158.06 19.17 158.06"/><line class="cls-2" x1="46.72" y1="139.3" x2="22.52" y2="163.98"/><line class="cls-2" x1="46.72" y1="139.3" x2="22.52" y2="163.98"/><polyline class="cls-2" points="50.92 144.24 41.88 144.24 41.88 135.33"/><polyline class="cls-2" points="28.17 167.31 28.17 158.29 19.25 158.29"/><line class="cls-2" x1="17.27" y1="151.93" x2="51.87" y2="151.55"/><line class="cls-2" x1="17.27" y1="151.93" x2="51.87" y2="151.55"/><polyline class="cls-3" points="17.8 145.47 24.19 151.85 17.88 158.15"/><polyline class="cls-3" points="50.23 145.21 43.84 151.59 50.15 157.88"/><line class="cls-2" x1="17.37" y1="151.71" x2="51.98" y2="151.33"/><line class="cls-2" x1="17.37" y1="151.71" x2="51.98" y2="151.33"/><polyline class="cls-2" points="17.91 145.25 24.3 151.63 17.98 157.93"/><polyline class="cls-2" points="50.34 144.99 43.95 151.37 50.26 157.67"/><line class="cls-2" x1="151.85" y1="252.95" x2="152.22" y2="287.48"/><line class="cls-2" x1="151.85" y1="252.95" x2="152.22" y2="287.48"/><polyline class="cls-3" points="158.31 253.48 151.92 259.85 145.61 253.56"/><polyline class="cls-3" points="158.57 285.84 152.19 279.46 145.88 285.76"/><line class="cls-2" x1="152.07" y1="253.05" x2="152.44" y2="287.58"/><line class="cls-2" x1="152.07" y1="253.05" x2="152.44" y2="287.58"/><polyline class="cls-2" points="158.53 253.58 152.14 259.96 145.83 253.66"/><polyline class="cls-2" points="158.79 285.94 152.41 279.57 146.09 285.87"/><line class="cls-2" x1="139.91" y1="258.64" x2="164.64" y2="282.79"/><line class="cls-2" x1="139.91" y1="258.64" x2="164.64" y2="282.79"/><polyline class="cls-3" points="144.86 254.45 144.86 263.47 135.93 263.47"/><polyline class="cls-3" points="167.97 277.15 158.94 277.15 158.94 286.06"/><line class="cls-2" x1="140.14" y1="258.56" x2="164.87" y2="282.71"/><line class="cls-2" x1="140.14" y1="258.56" x2="164.87" y2="282.71"/><polyline class="cls-2" points="145.08 254.37 145.08 263.39 136.16 263.39"/><polyline class="cls-2" points="168.2 277.07 159.17 277.07 159.17 285.97"/><line class="cls-2" x1="164.44" y1="257.82" x2="140.24" y2="282.5"/><line class="cls-2" x1="164.44" y1="257.82" x2="140.24" y2="282.5"/><polyline class="cls-3" points="168.64 262.76 159.6 262.76 159.6 253.85"/><polyline class="cls-3" points="145.89 285.83 145.89 276.81 136.97 276.81"/><line class="cls-2" x1="164.52" y1="258.05" x2="140.32" y2="282.73"/><line class="cls-2" x1="164.52" y1="258.05" x2="140.32" y2="282.73"/><polyline class="cls-2" points="168.72 262.98 159.68 262.98 159.68 254.08"/><polyline class="cls-2" points="145.97 286.05 145.97 277.04 137.05 277.04"/><line class="cls-2" x1="135.07" y1="270.67" x2="169.67" y2="270.29"/><line class="cls-2" x1="135.07" y1="270.67" x2="169.67" y2="270.29"/><polyline class="cls-3" points="135.6 264.22 141.99 270.6 135.68 276.89"/><polyline class="cls-3" points="168.03 263.96 161.64 270.33 167.95 276.63"/><line class="cls-2" x1="135.17" y1="270.45" x2="169.77" y2="270.08"/><line class="cls-2" x1="135.17" y1="270.45" x2="169.77" y2="270.08"/><polyline class="cls-2" points="135.71 264 142.09 270.38 135.78 276.67"/><polyline class="cls-2" points="168.13 263.74 161.75 270.11 168.06 276.41"/><line class="cls-2" x1="270.76" y1="131.34" x2="271.13" y2="165.87"/><line class="cls-2" x1="270.76" y1="131.34" x2="271.13" y2="165.87"/><polyline class="cls-3" points="277.22 131.87 270.83 138.24 264.52 131.94"/><polyline class="cls-3" points="277.48 164.23 271.1 157.85 264.79 164.15"/><line class="cls-2" x1="270.98" y1="131.44" x2="271.35" y2="165.97"/><line class="cls-2" x1="270.98" y1="131.44" x2="271.35" y2="165.97"/><polyline class="cls-2" points="277.44 131.97 271.05 138.35 264.74 132.05"/><polyline class="cls-2" points="277.7 164.33 271.31 157.96 265 164.25"/><line class="cls-2" x1="258.82" y1="137.03" x2="283.55" y2="161.18"/><line class="cls-2" x1="258.82" y1="137.03" x2="283.55" y2="161.18"/><polyline class="cls-3" points="263.77 132.84 263.77 141.86 254.84 141.86"/><polyline class="cls-3" points="286.88 155.54 277.85 155.54 277.85 164.44"/><line class="cls-2" x1="259.05" y1="136.94" x2="283.78" y2="161.09"/><line class="cls-2" x1="259.05" y1="136.94" x2="283.78" y2="161.09"/><polyline class="cls-2" points="263.99 132.76 263.99 141.78 255.07 141.78"/><polyline class="cls-2" points="287.11 155.46 278.08 155.46 278.08 164.36"/><line class="cls-2" x1="283.35" y1="136.21" x2="259.15" y2="160.89"/><line class="cls-2" x1="283.35" y1="136.21" x2="259.15" y2="160.89"/><polyline class="cls-3" points="287.55 141.15 278.51 141.15 278.51 132.24"/><polyline class="cls-3" points="264.8 164.22 264.8 155.2 255.88 155.2"/><line class="cls-2" x1="283.43" y1="136.44" x2="259.23" y2="161.12"/><line class="cls-2" x1="283.43" y1="136.44" x2="259.23" y2="161.12"/><polyline class="cls-2" points="287.63 141.37 278.59 141.37 278.59 132.47"/><polyline class="cls-2" points="264.88 164.44 264.88 155.43 255.96 155.43"/><line class="cls-2" x1="253.98" y1="149.06" x2="288.58" y2="148.68"/><line class="cls-2" x1="253.98" y1="149.06" x2="288.58" y2="148.68"/><polyline class="cls-3" points="254.51 142.61 260.9 148.98 254.59 155.28"/><polyline class="cls-3" points="286.94 142.35 280.55 148.72 286.86 155.02"/><line class="cls-2" x1="254.08" y1="148.84" x2="288.68" y2="148.46"/><line class="cls-2" x1="254.08" y1="148.84" x2="288.68" y2="148.46"/><polyline class="cls-2" points="254.62 142.39 261 148.76 254.69 155.06"/><polyline class="cls-2" points="287.04 142.13 280.66 148.5 286.97 154.8"/><ellipse class="cls-4" cx="233.8" cy="67.42" rx="3.91" ry="3.92"/><polyline class="cls-4" points="233.8 63.5 237.7 54.73 233.8 46.89"/><polyline class="cls-4" points="233.8 63.5 229.89 54.73 233.8 46.89"/><polyline class="cls-4" points="233.8 87.95 237.7 79.18 233.8 71.34"/><polyline class="cls-4" points="233.8 87.95 229.89 79.18 233.8 71.34"/><polyline class="cls-4" points="216.24 57.38 221.85 65.16 230.58 65.68"/><polyline class="cls-4" points="216.24 57.38 225.76 58.37 230.58 65.68"/><polyline class="cls-4" points="251.38 56.25 241.85 57.24 237.04 64.56"/><polyline class="cls-4" points="251.38 56.25 245.76 64.03 237.04 64.56"/><polyline class="cls-4" points="216.24 78.16 225.76 77.17 230.58 69.86"/><polyline class="cls-4" points="216.24 78.16 221.85 70.38 230.58 69.86"/><polyline class="cls-4" points="251.38 76.76 245.76 68.98 237.04 68.45"/><polyline class="cls-4" points="251.38 76.76 241.85 75.77 237.04 68.45"/><polyline class="cls-5" points="216.22 67.77 219.38 69.19 222.2 67.77"/><polyline class="cls-5" points="216.22 67.77 219.38 66.35 222.2 67.77"/><polyline class="cls-5" points="245.39 66.5 248.55 67.92 251.38 66.5"/><polyline class="cls-5" points="245.39 66.5 248.55 65.09 251.38 66.5"/><polyline class="cls-5" points="239.81 56.25 242.7 54.33 243.02 51.18"/><polyline class="cls-5" points="239.81 56.25 240.31 52.81 243.02 51.18"/><polyline class="cls-5" points="225.76 81.83 228.65 79.91 228.96 76.76"/><polyline class="cls-5" points="225.76 81.83 226.26 78.39 228.96 76.76"/><polyline class="cls-5" points="243.29 81.63 242.41 78.27 239.54 76.95"/><polyline class="cls-5" points="243.29 81.63 240.21 80.05 239.54 76.95"/><polyline class="cls-5" points="228.19 56.71 227.31 53.35 224.44 52.03"/><polyline class="cls-5" points="228.19 56.71 225.11 55.13 224.44 52.03"/><ellipse class="cls-4" cx="71.73" cy="236.49" rx="3.91" ry="3.92"/><polyline class="cls-4" points="71.73 232.57 75.64 223.81 71.73 215.97"/><polyline class="cls-4" points="71.73 232.57 67.82 223.81 71.73 215.97"/><polyline class="cls-4" points="71.73 257.02 75.64 248.25 71.73 240.41"/><polyline class="cls-4" points="71.73 257.02 67.82 248.25 71.73 240.41"/><polyline class="cls-4" points="54.17 226.45 59.78 234.23 68.51 234.75"/><polyline class="cls-4" points="54.17 226.45 63.69 227.44 68.51 234.75"/><polyline class="cls-4" points="89.31 225.32 79.78 226.31 74.97 233.63"/><polyline class="cls-4" points="89.31 225.32 83.69 233.1 74.97 233.63"/><polyline class="cls-4" points="54.17 247.23 63.69 246.24 68.51 238.93"/><polyline class="cls-4" points="54.17 247.23 59.78 239.45 68.51 238.93"/><polyline class="cls-4" points="89.31 245.83 83.69 238.05 74.97 237.52"/><polyline class="cls-4" points="89.31 245.83 79.78 244.84 74.97 237.52"/><polyline class="cls-5" points="54.15 236.84 57.31 238.26 60.13 236.84"/><polyline class="cls-5" points="54.15 236.84 57.31 235.42 60.13 236.84"/><polyline class="cls-5" points="83.32 235.57 86.48 236.99 89.31 235.57"/><polyline class="cls-5" points="83.32 235.57 86.48 234.16 89.31 235.57"/><polyline class="cls-5" points="77.75 225.32 80.63 223.4 80.95 220.25"/><polyline class="cls-5" points="77.75 225.32 78.24 221.88 80.95 220.25"/><polyline class="cls-5" points="63.69 250.9 66.58 248.98 66.89 245.83"/><polyline class="cls-5" points="63.69 250.9 64.19 247.46 66.89 245.83"/><polyline class="cls-5" points="81.22 250.7 80.34 247.34 77.47 246.02"/><polyline class="cls-5" points="81.22 250.7 78.14 249.12 77.47 246.02"/><polyline class="cls-5" points="66.12 225.78 65.24 222.42 62.37 221.1"/><polyline class="cls-5" points="66.12 225.78 63.04 224.2 62.37 221.1"/><ellipse class="cls-4" cx="234.45" cy="238.26" rx="3.91" ry="3.92"/><polyline class="cls-4" points="234.45 234.34 238.36 225.57 234.45 217.73"/><polyline class="cls-4" points="234.45 234.34 230.55 225.57 234.45 217.73"/><polyline class="cls-4" points="234.45 258.79 238.36 250.02 234.45 242.18"/><polyline class="cls-4" points="234.45 258.79 230.55 250.02 234.45 242.18"/><polyline class="cls-4" points="216.89 228.21 222.51 235.99 231.23 236.52"/><polyline class="cls-4" points="216.89 228.21 226.42 229.2 231.23 236.52"/><polyline class="cls-4" points="252.03 227.09 242.51 228.07 237.69 235.39"/><polyline class="cls-4" points="252.03 227.09 246.42 234.86 237.69 235.39"/><polyline class="cls-4" points="216.89 248.99 226.42 248 231.23 240.69"/><polyline class="cls-4" points="216.89 248.99 222.51 241.21 231.23 240.69"/><polyline class="cls-4" points="252.03 247.59 246.42 239.81 237.69 239.28"/><polyline class="cls-4" points="252.03 247.59 242.51 246.6 237.69 239.28"/><polyline class="cls-5" points="216.87 238.6 220.03 240.02 222.86 238.6"/><polyline class="cls-5" points="216.87 238.6 220.03 237.19 222.86 238.6"/><polyline class="cls-5" points="246.05 237.34 249.21 238.75 252.03 237.34"/><polyline class="cls-5" points="246.05 237.34 249.21 235.92 252.03 237.34"/><polyline class="cls-5" points="240.47 227.09 243.36 225.16 243.67 222.01"/><polyline class="cls-5" points="240.47 227.09 240.97 223.65 243.67 222.01"/><polyline class="cls-5" points="226.42 252.66 229.3 250.74 229.62 247.59"/><polyline class="cls-5" points="226.42 252.66 226.91 249.23 229.62 247.59"/><polyline class="cls-5" points="243.95 252.47 243.07 249.11 240.2 247.79"/><polyline class="cls-5" points="243.95 252.47 240.87 250.88 240.2 247.79"/><polyline class="cls-5" points="228.84 227.54 227.97 224.19 225.09 222.86"/><polyline class="cls-5" points="228.84 227.54 225.76 225.96 225.09 222.86"/><ellipse class="cls-4" cx="69.77" cy="62.02" rx="3.91" ry="3.92"/><polyline class="cls-4" points="69.77 58.1 73.68 49.33 69.77 41.49"/><polyline class="cls-4" points="69.77 58.1 65.87 49.33 69.77 41.49"/><polyline class="cls-4" points="69.77 82.55 73.68 73.78 69.77 65.94"/><polyline class="cls-4" points="69.77 82.55 65.87 73.78 69.77 65.94"/><polyline class="cls-4" points="52.21 51.97 57.83 59.75 66.55 60.28"/><polyline class="cls-4" points="52.21 51.97 61.74 52.96 66.55 60.28"/><polyline class="cls-4" points="87.35 50.84 77.83 51.84 73.02 59.15"/><polyline class="cls-4" points="87.35 50.84 81.74 58.62 73.02 59.15"/><polyline class="cls-4" points="52.21 72.75 61.74 71.76 66.55 64.45"/><polyline class="cls-4" points="52.21 72.75 57.83 64.97 66.55 64.45"/><polyline class="cls-4" points="87.35 71.35 81.74 63.57 73.02 63.04"/><polyline class="cls-4" points="87.35 71.35 77.83 70.36 73.02 63.04"/><polyline class="cls-5" points="52.19 62.36 55.35 63.78 58.18 62.36"/><polyline class="cls-5" points="52.19 62.36 55.35 60.95 58.18 62.36"/><polyline class="cls-5" points="81.37 61.1 84.53 62.51 87.35 61.1"/><polyline class="cls-5" points="81.37 61.1 84.53 59.68 87.35 61.1"/><polyline class="cls-5" points="75.79 50.84 78.68 48.92 78.99 45.77"/><polyline class="cls-5" points="75.79 50.84 76.29 47.41 78.99 45.77"/><polyline class="cls-5" points="61.74 76.42 64.62 74.5 64.94 71.35"/><polyline class="cls-5" points="61.74 76.42 62.23 72.99 64.94 71.35"/><polyline class="cls-5" points="79.27 76.23 78.39 72.87 75.52 71.55"/><polyline class="cls-5" points="79.27 76.23 76.19 74.64 75.52 71.55"/><polyline class="cls-5" points="64.17 51.3 63.28 47.94 60.41 46.62"/><polyline class="cls-5" points="64.17 51.3 61.08 49.72 60.41 46.62"/><polygon class="cls-6" points="113.75 163.88 113.75 166.54 116.66 166.3 116.54 163.3 113.75 163.88"/><polyline class="cls-7" points="113.75 170.35 120.06 169.14 119.97 162.6"/><polyline class="cls-8" points="124.36 161.7 127.3 161.09 124.17 166.22 124.16 172.55 117.33 173.87 113.75 177.76 113.75 174.35"/><polygon class="cls-6" points="128.56 181.71 128.69 177.4 133.04 176.13 128.56 181.71"/><polyline class="cls-7" points="131.91 160.15 128.33 176.03 113.75 182.47"/><polyline class="cls-9" points="125.96 177.08 125.56 185.96 117.4 188.84 113.75 186.27"/><polygon class="cls-6" points="113.75 188.28 117.59 191.12 113.75 191.03 113.75 188.28"/><polyline class="cls-9" points="128.92 173.44 137.05 171.67 139.04 163.5 135.01 159.51"/><polygon class="cls-6" points="140.15 158.46 140.23 162.22 137.04 159.1 140.15 158.46"/><polygon class="cls-6" points="148.46 193.44 148.46 190.77 145.56 191.01 145.67 194.01 148.46 193.44"/><polyline class="cls-7" points="148.46 186.96 142.15 188.17 142.24 194.71"/><polyline class="cls-8" points="137.85 195.61 134.91 196.22 138.04 191.09 138.05 184.76 144.88 183.44 148.46 179.55 148.46 182.96"/><polygon class="cls-6" points="132.89 176.03 132.75 180.34 128.4 181.61 132.89 176.03"/><polygon class="cls-6" points="113.06 200.7 115.98 200.1 115.67 197.45 113.06 197.79 113.06 200.7"/><polygon class="cls-6" points="148.46 156.66 148.46 159.54 146.12 159.58 145.74 157.22 148.46 156.66"/><polyline class="cls-7" points="148.46 163.15 143.38 162.99 142.8 157.83"/><polyline class="cls-7" points="119.51 199.38 118.97 193.35 113.06 194.36"/><polyline class="cls-7" points="130.31 197.16 133.88 181.28 148.46 174.84"/><line class="cls-10" x1="146.12" y1="159.58" x2="115.67" y2="197.45"/><polyline class="cls-9" points="136.25 180.23 136.65 171.35 144.81 168.47 148.46 171.04"/><polygon class="cls-6" points="148.46 169.03 144.62 166.19 148.46 166.28 148.46 169.03"/><polyline class="cls-9" points="133.3 183.87 125.17 185.64 123.17 193.81 127.2 197.8"/><polygon class="cls-6" points="122.07 198.85 121.98 195.09 125.18 198.21 122.07 198.85"/><line class="cls-10" x1="145.56" y1="191.01" x2="131.19" y2="179.14"/><line class="cls-11" x1="116.66" y1="166.3" x2="131.05" y2="178.6"/><polygon class="cls-12" points="107.18 199.39 107.18 196.5 105.49 195.98 104.71 198.11 107.18 199.39"/><polygon class="cls-12" points="107.38 163.02 107.38 166.31 104.22 166.31 103.92 161.23 107.38 163.02"/><polyline class="cls-13" points="107.38 168.57 101.72 168.57 101.72 160.09"/><polyline class="cls-13" points="107.38 193.38 103.92 192.81 102.2 197.11"/><polyline class="cls-14" points="99.36 158.86 97.26 157.78 99.27 163.89 99.27 170.98 105.8 172.22 107.38 174.04 107.38 171.85"/><polygon class="cls-15" points="96.57 173.63 96.57 177.97 93.72 172.22 96.57 173.63"/><polyline class="cls-13" points="94.46 156.32 97.26 172.95 107.38 180.56"/><polyline class="cls-14" points="96.66 169.41 90.42 165.56 90.02 156.32 92.22 155.16"/><polyline class="cls-14" points="101.23 175.93 100.59 186.09 104.55 188.87 107.38 188.87"/><polygon class="cls-15" points="107.38 182.4 103.55 184.61 107.38 186.15 107.38 182.4"/><line class="cls-16" x1="104.22" y1="166.31" x2="96.57" y2="173.63"/><polygon class="cls-12" points="82.67 149.91 82.67 153.77 84.75 154.13 85.82 151.54 82.67 149.91"/><polygon class="cls-12" points="82.67 186.68 82.67 183.39 85.82 183.39 86.13 188.47 82.67 186.68"/><polyline class="cls-13" points="82.67 181.13 88.32 181.13 88.32 189.61"/><polyline class="cls-13" points="82.67 156.32 86.13 156.89 87.85 152.59"/><polyline class="cls-14" points="90.69 190.84 92.78 191.92 90.77 185.81 90.77 178.72 84.24 177.48 82.67 175.66 82.67 177.85"/><polygon class="cls-15" points="93.48 176.07 93.48 171.73 96.32 177.48 93.48 176.07"/><polyline class="cls-13" points="95.58 193.38 92.78 176.75 82.67 169.15"/><polyline class="cls-14" points="93.38 180.29 99.62 184.14 100.03 193.38 97.82 194.54"/><polyline class="cls-14" points="88.82 173.77 89.45 163.61 85.49 160.83 82.67 160.83"/><polygon class="cls-15" points="82.67 167.3 86.5 165.09 82.67 163.56 82.67 167.3"/><line class="cls-16" x1="85.82" y1="183.39" x2="93.48" y2="176.07"/><line class="cls-16" x1="105.49" y1="195.98" x2="84.76" y2="154.13"/><polygon class="cls-17" points="146.74 152.2 143.82 150.64 141.63 151.67 143.42 152.88 146.74 152.2"/><polyline class="cls-18" points="140.12 148.66 136.54 151.14 140.12 153.56"/><polyline class="cls-19" points="135.95 146.42 133.47 145.1 133.47 147.69 129.44 150.4 133.35 153.1 133.59 154.9 136.12 154.38"/><polyline class="cls-18" points="129.44 142.94 123.28 149.75 129.44 155.75"/><polygon class="cls-17" points="118.16 149.22 117.24 147.12 115.55 150.64 118.16 149.22"/><polyline class="cls-20" points="126.05 141.12 123.28 144.15 118.93 143.58 123.28 149.75 114.08 153.71 119.05 155.42 120.07 157.67"/><polygon class="cls-17" points="125.3 156.6 122.34 154.16 122.34 157.21 125.3 156.6"/><line class="cls-21" x1="141.63" y1="151.67" x2="118.16" y2="149.22"/><polygon class="cls-17" points="111.25 159.32 109.28 158.27 112.55 156.6 113.51 158.85 111.25 159.32"/><polygon class="cls-17" points="85.83 145.7 88.75 147.26 90.94 146.23 89.14 145.02 85.83 145.7"/><polygon class="cls-17" points="121.23 138.44 118.87 138.92 120.05 140.91 122.56 139.15 121.23 138.44"/><polyline class="cls-18" points="92.45 149.25 96.02 146.77 92.45 144.34"/><polyline class="cls-19" points="96.61 151.48 99.09 152.81 99.09 150.21 103.12 147.51 99.22 144.8 98.98 143 96.44 143.52"/><polyline class="cls-18" points="103.12 154.97 109.28 148.15 103.12 142.15"/><polygon class="cls-17" points="114.41 148.69 115.33 150.79 117.01 147.26 114.41 148.69"/><polyline class="cls-20" points="106.51 156.78 109.28 153.75 113.64 154.32 109.28 148.15 118.48 144.19 113.51 142.49 112.5 140.23"/><polygon class="cls-17" points="107.27 141.3 110.22 143.75 110.22 140.69 107.27 141.3"/><line class="cls-21" x1="90.94" y1="146.23" x2="114.41" y2="148.69"/><line class="cls-21" x1="120.05" y1="140.91" x2="112.55" y2="156.6"/><polygon class="cls-6" points="155.03 111.44 155.03 114.11 157.94 113.87 157.82 110.87 155.03 111.44"/><polyline class="cls-7" points="155.03 117.92 161.35 116.71 161.25 110.17"/><polyline class="cls-8" points="165.64 109.27 168.58 108.66 165.45 113.79 165.44 120.12 158.62 121.44 155.03 125.33 155.03 121.92"/><polygon class="cls-6" points="169.84 129.28 169.97 124.97 174.33 123.7 169.84 129.28"/><polyline class="cls-7" points="173.19 107.72 169.61 123.6 155.03 130.04"/><polyline class="cls-9" points="167.24 124.65 166.84 133.53 158.68 136.41 155.03 133.84"/><polygon class="cls-6" points="155.03 135.85 158.87 138.69 155.03 138.6 155.03 135.85"/><polyline class="cls-9" points="170.2 121.01 178.33 119.24 180.32 111.07 176.29 107.08"/><polygon class="cls-6" points="181.43 106.03 181.51 109.79 178.32 106.67 181.43 106.03"/><polygon class="cls-6" points="189.75 141 189.75 138.34 186.84 138.58 186.95 141.58 189.75 141"/><polyline class="cls-7" points="189.75 134.53 183.43 135.74 183.53 142.28"/><polyline class="cls-8" points="179.13 143.18 176.19 143.79 179.32 138.66 179.33 132.33 186.16 131.01 189.75 127.12 189.75 130.53"/><polygon class="cls-6" points="174.17 123.6 174.04 127.91 169.69 129.18 174.17 123.6"/><polygon class="cls-6" points="154.34 148.27 157.26 147.67 156.95 145.02 154.34 145.36 154.34 148.27"/><polygon class="cls-6" points="189.75 104.23 189.75 107.11 187.4 107.15 187.02 104.79 189.75 104.23"/><polyline class="cls-7" points="189.75 110.72 184.66 110.56 184.08 105.4"/><polyline class="cls-7" points="160.79 146.95 160.25 140.92 154.34 141.93"/><polyline class="cls-7" points="171.59 144.73 175.16 128.85 189.75 122.41"/><line class="cls-10" x1="187.4" y1="107.15" x2="156.95" y2="145.02"/><polyline class="cls-9" points="177.54 127.8 177.94 118.92 186.1 116.04 189.75 118.61"/><polygon class="cls-6" points="189.75 116.6 185.91 113.76 189.75 113.84 189.75 116.6"/><polyline class="cls-9" points="174.58 131.44 166.45 133.21 164.45 141.38 168.48 145.37"/><polygon class="cls-6" points="163.35 146.42 163.26 142.66 166.46 145.78 163.35 146.42"/><line class="cls-10" x1="186.84" y1="138.58" x2="172.47" y2="126.71"/><line class="cls-11" x1="157.94" y1="113.87" x2="172.33" y2="126.17"/><polygon class="cls-12" points="148.46 146.96 148.46 144.06 146.77 143.55 145.99 145.68 148.46 146.96"/><polygon class="cls-12" points="148.66 110.59 148.66 113.88 145.5 113.88 145.2 108.8 148.66 110.59"/><polyline class="cls-13" points="148.66 116.14 143 116.14 143 107.66"/><polyline class="cls-13" points="148.66 140.95 145.2 140.38 143.48 144.68"/><polyline class="cls-14" points="140.64 106.43 138.54 105.35 140.55 111.46 140.55 118.55 147.08 119.79 148.66 121.61 148.66 119.42"/><polygon class="cls-15" points="137.85 121.2 137.85 125.54 135 119.79 137.85 121.2"/><polyline class="cls-13" points="135.74 103.89 138.54 120.52 148.66 128.13"/><polyline class="cls-14" points="137.95 116.98 131.7 113.13 131.3 103.89 133.5 102.73"/><polyline class="cls-14" points="142.51 123.5 141.87 133.66 145.83 136.44 148.66 136.44"/><polygon class="cls-15" points="148.66 129.97 144.83 132.18 148.66 133.72 148.66 129.97"/><line class="cls-16" x1="145.5" y1="113.88" x2="137.85" y2="121.2"/><polygon class="cls-12" points="123.95 97.48 123.95 101.34 126.04 101.7 127.1 99.11 123.95 97.48"/><polygon class="cls-12" points="123.95 134.25 123.95 130.96 127.1 130.96 127.41 136.04 123.95 134.25"/><polyline class="cls-13" points="123.95 128.7 129.6 128.7 129.6 137.18"/><polyline class="cls-13" points="123.95 103.89 127.41 104.46 129.13 100.16"/><polyline class="cls-14" points="131.97 138.41 134.06 139.49 132.05 133.38 132.05 126.29 125.53 125.05 123.95 123.23 123.95 125.42"/><polygon class="cls-15" points="134.76 123.64 134.76 119.3 137.6 125.05 134.76 123.64"/><polyline class="cls-13" points="136.87 140.95 134.06 124.32 123.95 116.71"/><polyline class="cls-14" points="134.66 127.86 140.91 131.71 141.31 140.95 139.1 142.11"/><polyline class="cls-14" points="130.1 121.34 130.73 111.18 126.78 108.4 123.95 108.4"/><polygon class="cls-15" points="123.95 114.87 127.78 112.66 123.95 111.13 123.95 114.87"/><line class="cls-16" x1="127.1" y1="130.96" x2="134.76" y2="123.64"/><line class="cls-16" x1="146.77" y1="143.55" x2="126.04" y2="101.7"/><polygon class="cls-17" points="188.02 99.77 185.1 98.21 182.91 99.24 184.7 100.45 188.02 99.77"/><polyline class="cls-18" points="181.4 96.23 177.82 98.71 181.4 101.13"/><polyline class="cls-19" points="177.23 93.99 174.76 92.67 174.76 95.27 170.72 97.97 174.63 100.67 174.87 102.47 177.41 101.95"/><polyline class="cls-18" points="170.72 90.51 164.57 97.32 170.72 103.32"/><polygon class="cls-17" points="159.44 96.79 158.52 94.69 156.84 98.21 159.44 96.79"/><polyline class="cls-20" points="167.33 88.69 164.57 91.72 160.21 91.15 164.57 97.32 155.37 101.28 160.34 102.99 161.35 105.24"/><polygon class="cls-17" points="166.58 104.17 163.62 101.73 163.62 104.78 166.58 104.17"/><line class="cls-21" x1="182.91" y1="99.24" x2="159.44" y2="96.79"/><polygon class="cls-17" points="152.53 106.89 150.56 105.84 153.83 104.17 154.79 106.42 152.53 106.89"/><polygon class="cls-17" points="127.11 93.27 130.03 94.83 132.22 93.8 130.42 92.59 127.11 93.27"/><polygon class="cls-17" points="162.51 86.01 160.15 86.49 161.33 88.48 163.84 86.72 162.51 86.01"/><polyline class="cls-18" points="133.73 96.82 137.31 94.34 133.73 91.91"/><polyline class="cls-19" points="137.9 99.05 140.37 100.38 140.37 97.78 144.4 95.08 140.5 92.37 140.26 90.57 137.72 91.09"/><polyline class="cls-18" points="144.4 102.54 150.56 95.72 144.4 89.72"/><polygon class="cls-17" points="155.69 96.26 156.61 98.36 158.29 94.83 155.69 96.26"/><polyline class="cls-20" points="147.79 104.35 150.56 101.32 154.92 101.89 150.56 95.72 159.76 91.76 154.79 90.06 153.78 87.8"/><polygon class="cls-17" points="148.55 88.87 151.51 91.32 151.51 88.27 148.55 88.87"/><line class="cls-21" x1="132.22" y1="93.8" x2="155.69" y2="96.26"/><line class="cls-21" x1="161.33" y1="88.48" x2="153.83" y2="104.17"/><polygon class="cls-6" points="187.57 170.86 187.57 173.53 190.48 173.28 190.36 170.29 187.57 170.86"/><polyline class="cls-7" points="187.57 177.34 193.88 176.12 193.79 169.58"/><polyline class="cls-8" points="198.18 168.68 201.12 168.08 197.99 173.2 197.98 179.54 191.15 180.85 187.57 184.75 187.57 181.34"/><polygon class="cls-6" points="202.38 188.69 202.51 184.38 206.86 183.11 202.38 188.69"/><polyline class="cls-7" points="205.73 167.14 202.15 183.01 187.57 189.45"/><polyline class="cls-9" points="199.78 184.06 199.38 192.94 191.22 195.83 187.57 193.26"/><polygon class="cls-6" points="187.57 195.26 191.41 198.1 187.57 198.02 187.57 195.26"/><polyline class="cls-9" points="202.74 180.42 210.87 178.66 212.86 170.49 208.83 166.5"/><polygon class="cls-6" points="213.97 165.44 214.05 169.21 210.86 166.08 213.97 165.44"/><polygon class="cls-6" points="222.28 200.42 222.28 197.76 219.38 198 219.49 200.99 222.28 200.42"/><polyline class="cls-7" points="222.28 193.94 215.97 195.16 216.06 201.7"/><polyline class="cls-8" points="211.67 202.6 208.73 203.2 211.86 198.08 211.87 191.75 218.7 190.43 222.28 186.53 222.28 189.94"/><polygon class="cls-6" points="206.71 183.02 206.57 187.33 202.22 188.6 206.71 183.02"/><polygon class="cls-6" points="186.88 207.69 189.8 207.09 189.49 204.44 186.88 204.78 186.88 207.69"/><polygon class="cls-6" points="222.28 163.65 222.28 166.53 219.94 166.56 219.56 164.21 222.28 163.65"/><polyline class="cls-7" points="222.28 170.14 217.2 169.98 216.62 164.81"/><polyline class="cls-7" points="193.32 206.36 192.79 200.34 186.88 201.35"/><polyline class="cls-7" points="204.13 204.15 207.7 188.27 222.28 181.83"/><line class="cls-10" x1="219.94" y1="166.56" x2="189.49" y2="204.44"/><polyline class="cls-9" points="210.07 187.22 210.47 178.34 218.63 175.45 222.28 178.02"/><polygon class="cls-6" points="222.28 176.02 218.44 173.18 222.28 173.26 222.28 176.02"/><polyline class="cls-9" points="207.12 190.86 198.99 192.63 196.99 200.79 201.02 204.78"/><polygon class="cls-6" points="195.89 205.84 195.8 202.08 199 205.2 195.89 205.84"/><line class="cls-10" x1="219.38" y1="198" x2="205.01" y2="186.12"/><line class="cls-11" x1="190.48" y1="173.28" x2="204.87" y2="185.59"/><polygon class="cls-12" points="181 206.38 181 203.48 179.31 202.96 178.53 205.1 181 206.38"/><polygon class="cls-12" points="181.2 170.01 181.2 173.3 178.04 173.3 177.74 168.21 181.2 170.01"/><polyline class="cls-13" points="181.2 175.56 175.54 175.56 175.54 167.07"/><polyline class="cls-13" points="181.2 200.37 177.74 199.79 176.01 204.09"/><polyline class="cls-14" points="173.18 165.85 171.08 164.76 173.09 170.87 173.09 177.96 179.62 179.21 181.2 181.02 181.2 178.83"/><polygon class="cls-15" points="170.38 180.62 170.38 184.95 167.54 179.21 170.38 180.62"/><polyline class="cls-13" points="168.28 163.31 171.08 179.94 181.2 187.54"/><polyline class="cls-14" points="170.48 176.4 164.24 172.54 163.83 163.31 166.04 162.15"/><polyline class="cls-14" points="175.05 182.92 174.41 193.08 178.37 195.85 181.2 195.85"/><polygon class="cls-15" points="181.2 189.39 177.37 191.6 181.2 193.13 181.2 189.39"/><line class="cls-16" x1="178.04" y1="173.3" x2="170.39" y2="180.62"/><polygon class="cls-12" points="156.49 156.89 156.49 160.75 158.57 161.11 159.64 158.53 156.49 156.89"/><polygon class="cls-12" points="156.49 193.66 156.49 190.37 159.64 190.37 159.94 195.46 156.49 193.66"/><polyline class="cls-13" points="156.49 188.11 162.14 188.11 162.14 196.6"/><polyline class="cls-13" points="156.49 163.31 159.94 163.88 161.67 159.58"/><polyline class="cls-14" points="164.51 197.82 166.6 198.91 164.59 192.8 164.59 185.71 158.06 184.47 156.49 182.65 156.49 184.84"/><polygon class="cls-15" points="167.3 183.05 167.3 178.72 170.14 184.47 167.3 183.05"/><polyline class="cls-13" points="169.41 200.36 166.6 183.74 156.49 176.13"/><polyline class="cls-14" points="167.2 187.27 173.44 191.13 173.85 200.36 171.64 201.52"/><polyline class="cls-14" points="162.63 180.75 163.27 170.59 159.31 167.82 156.49 167.82"/><polygon class="cls-15" points="156.49 174.28 160.31 172.07 156.49 170.54 156.49 174.28"/><line class="cls-16" x1="159.64" y1="190.37" x2="167.3" y2="183.05"/><line class="cls-16" x1="179.31" y1="202.96" x2="158.57" y2="161.11"/><polygon class="cls-17" points="220.56 159.19 217.64 157.62 215.45 158.66 217.24 159.87 220.56 159.19"/><polyline class="cls-18" points="213.94 155.64 210.36 158.12 213.94 160.55"/><polyline class="cls-19" points="209.77 153.41 207.29 152.08 207.29 154.68 203.26 157.38 207.17 160.09 207.41 161.89 209.94 161.37"/><polyline class="cls-18" points="203.26 149.92 197.1 156.74 203.26 162.74"/><polygon class="cls-17" points="191.98 156.2 191.06 154.1 189.37 157.62 191.98 156.2"/><polyline class="cls-20" points="199.87 148.11 197.1 151.14 192.75 150.57 197.1 156.74 187.9 160.7 192.87 162.4 193.89 164.66"/><polygon class="cls-17" points="199.12 163.59 196.16 161.14 196.16 164.19 199.12 163.59"/><line class="cls-21" x1="215.45" y1="158.65" x2="191.98" y2="156.2"/><polygon class="cls-17" points="185.06 166.31 183.1 165.25 186.37 163.58 187.33 165.84 185.06 166.31"/><polygon class="cls-17" points="159.65 152.69 162.56 154.25 164.76 153.22 162.96 152.01 159.65 152.69"/><polygon class="cls-17" points="195.05 145.42 192.69 145.91 193.87 147.89 196.38 146.13 195.05 145.42"/><polyline class="cls-18" points="166.27 156.23 169.84 153.75 166.27 151.33"/><polyline class="cls-19" points="170.43 158.47 172.91 159.79 172.91 157.19 176.94 154.49 173.04 151.79 172.8 149.99 170.26 150.51"/><polyline class="cls-18" points="176.94 161.95 183.1 155.14 176.94 149.14"/><polygon class="cls-17" points="188.23 155.67 189.15 157.77 190.83 154.25 188.23 155.67"/><polyline class="cls-20" points="180.33 163.77 183.1 160.74 187.46 161.31 183.1 155.14 192.3 151.18 187.33 149.47 186.31 147.22"/><polygon class="cls-17" points="181.09 148.29 184.04 150.73 184.04 147.68 181.09 148.29"/><line class="cls-21" x1="164.76" y1="153.22" x2="188.23" y2="155.67"/><line class="cls-21" x1="193.87" y1="147.89" x2="186.37" y2="163.58"/><text class="cls-22" transform="translate(323.57 56.12)"><tspan class="cls-23">W</tspan><tspan x="12.49" y="0">anna Learn How All this Wor</tspan><tspan class="cls-24" x="232.55" y="0">k</tspan><tspan class="cls-25" x="241.91" y="0">s?</tspan></text></svg>