<svg id="Layer_1" data-name="Layer 1" xmlns="http://www.w3.org/2000/svg" viewBox="0 0 420 177.36"><defs><style>.cls-1{fill:#909590;stroke:#909590;}.cls-1,.cls-2,.cls-3,.cls-4,.cls-6,.cls-8{stroke-miterlimit:10;}.cls-2{fill:#9eae98;stroke:#9eae98;}.cls-2,.cls-3{stroke-width:5px;}.cls-3{fill:#c6dabf;stroke:#c6dabf;}.cls-4,.cls-6,.cls-8{fill:none;}.cls-4{stroke:#6ca979;}.cls-4,.cls-6{stroke-width:10px;}.cls-5{fill:#6ca979;}.cls-6{stroke:#88d498;}.cls-7{fill:#88d498;}.cls-8{stroke:#fff;stroke-width:3px;}</style></defs><title>logo</title><path class="cls-1" d="M268.37,160.49" transform="translate(-89.76 -61.84)"/><path class="cls-1" d="M268.37,160.49" transform="translate(-89.76 -61.84)"/><path d="M426.37,201.54a11.4,11.4,0,0,0-2.71.31v8.28c0-2.4,1.15-3.39,2.87-3.39s2.87,1,2.87,3.39v4.21h5.43v-3.85C434.83,204.87,431.91,201.54,426.37,201.54Z" transform="translate(-89.76 -61.84)"/><ellipse class="cls-2" cx="198.06" cy="134.42" rx="33.57" ry="26.72"/><ellipse class="cls-2" cx="132.43" cy="134.42" rx="59.66" ry="26.72"/><ellipse class="cls-2" cx="52.08" cy="128.84" rx="44.63" ry="32.29"/><ellipse class="cls-2" cx="191.47" cy="136.38" rx="61.4" ry="33.62" transform="translate(-116.93 -11.81) rotate(-13.91)"/><ellipse class="cls-2" cx="179.2" cy="87.39" rx="33.57" ry="26.72"/><ellipse class="cls-2" cx="140.72" cy="101.46" rx="33.57" ry="26.72"/><ellipse class="cls-3" cx="193.11" cy="123.41" rx="33.57" ry="26.72"/><ellipse class="cls-3" cx="127.48" cy="123.41" rx="59.66" ry="26.72"/><ellipse class="cls-3" cx="47.13" cy="117.84" rx="44.63" ry="32.29"/><ellipse class="cls-3" cx="186.52" cy="125.38" rx="61.4" ry="33.62" transform="translate(-114.43 -13.32) rotate(-13.91)"/><ellipse class="cls-3" cx="174.25" cy="76.39" rx="33.57" ry="26.72"/><ellipse class="cls-3" cx="135.77" cy="90.46" rx="33.57" ry="26.72"/><polyline class="cls-4" points="23.19 163.09 44.38 134.98 60.06 152.97 100.02 108.44 119.72 127.55 168.19 75.73"/><polygon class="cls-5" points="177.45 91.38 185.35 57.39 151.96 67.54 177.45 91.38"/><polyline class="cls-6" points="18.06 158 39.24 129.89 54.92 147.88 94.89 103.35 114.58 122.46 163.06 70.64"/><polygon class="cls-7" points="172.31 86.29 180.22 52.3 146.82 62.45 172.31 86.29"/><path d="M347.23,147.48h15.2v5.21H353v10.15h7.42v5.21H353v15.88h-5.74Z" transform="translate(-89.76 -61.84)"/><path d="M365.19,147.48h5.75v36.45h-5.75Z" transform="translate(-89.76 -61.84)"/><path d="M375.22,147.48h7.2L388,169.3h.1V147.48h5.12v36.45h-5.9l-6.89-26.61h-.11v26.61h-5.11Z" transform="translate(-89.76 -61.84)"/><path d="M402,147.48h7.78l5.95,36.45h-5.74l-1-7.24v.1h-6.53l-1.05,7.14H396Zm6.27,24.37-2.56-18h-.11l-2.5,18Z" transform="translate(-89.76 -61.84)"/><path d="M418.45,147.48h7.21l5.58,21.82h.11V147.48h5.12v36.45h-5.91l-6.89-26.61h-.1v26.61h-5.12Z" transform="translate(-89.76 -61.84)"/><path d="M440.38,175.49V155.92c0-5.63,2.92-9,8.46-9s8.46,3.33,8.46,9v3.85h-5.43v-4.22c0-2.39-1.15-3.38-2.87-3.38s-2.88,1-2.88,3.38v20.36c0,2.39,1.15,3.33,2.88,3.33s2.87-.94,2.87-3.33v-5.57h5.43v5.15c0,5.63-2.93,9-8.46,9S440.38,181.12,440.38,175.49Z" transform="translate(-89.76 -61.84)"/><path d="M460.74,147.48h5.75v36.45h-5.75Z" transform="translate(-89.76 -61.84)"/><path d="M475.21,147.48H483l5.95,36.45H483.2l-1.05-7.24v.1h-6.53l-1,7.14h-5.33Zm6.26,24.37-2.56-18h-.1l-2.51,18Z" transform="translate(-89.76 -61.84)"/><path d="M491.71,147.48h5.74v31.24h9.45v5.21H491.71Z" transform="translate(-89.76 -61.84)"/><path d="M339.5,202.23h15.19v5.21h-9.45v10.15h7.41v5.21h-7.41v15.87H339.5Z" transform="translate(-89.76 -61.84)"/><path d="M357,230V210.87c0-5.83,3.08-9.16,8.72-9.16s8.72,3.33,8.72,9.16V230c0,5.83-3.08,9.17-8.72,9.17S357,235.86,357,230Zm11.7.37V210.51c0-2.6-1.15-3.59-3-3.59s-3,1-3,3.59V230.4c0,2.6,1.15,3.59,3,3.59S368.74,233,368.74,230.4Z" transform="translate(-89.76 -61.84)"/><path d="M378.34,202.23h8.52c5.95,0,8.51,2.76,8.51,8.38v2.24c0,3.75-1.2,6.14-3.76,7.19v.1c2.87.89,3.81,3.59,3.81,7.71v6.4a10.58,10.58,0,0,0,.63,4.42H390.2c-.32-.93-.52-1.5-.52-4.47v-6.67c0-3.38-1-4.47-3.61-4.47h-2v15.61h-5.75Zm7.84,15.62c2.14,0,3.44-.94,3.44-3.85v-2.81c0-2.61-.88-3.75-2.92-3.75h-2.61v10.41Z" transform="translate(-89.76 -61.84)"/><path d="M399.39,202.23h15.66v5.21h-9.92v9.63H413v5.2h-7.89v11.2h9.92v5.2H399.39Z" transform="translate(-89.76 -61.84)"/><path d="M442.78,202.23h7.78l5.95,36.44h-5.74l-1-7.23v.1H443.2l-1.05,7.13h-5.32ZM449,226.6l-2.55-18h-.11l-2.51,18Z" transform="translate(-89.76 -61.84)"/><path d="M458.13,230V228h5.43v2.5c0,2.6,1.15,3.54,3,3.54s3-.94,3-3.65c0-3-1.15-4.94-4.91-8.22-4.8-4.22-6.37-7.19-6.37-11.35,0-5.73,3-9.06,8.57-9.06s8.35,3.33,8.35,9.16v1.51h-5.43v-1.87c0-2.6-1-3.59-2.87-3.59s-2.87,1-2.87,3.48c0,2.66,1.2,4.59,5,7.87,4.8,4.21,6.32,7.13,6.32,11.66,0,5.93-3,9.27-8.67,9.27S458.13,235.86,458.13,230Z" transform="translate(-89.76 -61.84)"/><path d="M483,207.44h-6v-5.21h17.75v5.21h-6v31.23H483Z" transform="translate(-89.76 -61.84)"/><path class="cls-7" d="M429.61,230.31c0,2.39-1.15,3.33-2.87,3.33s-2.88-.94-2.88-3.33V201.68c-3.77.95-5.74,4-5.74,8.63v19.58c0,5.62,2.92,9,8.46,9s8.46-3.33,8.46-9v-5.15h-5.43Z" transform="translate(-89.76 -61.84)"/><polygon class="cls-7" points="328.72 67.37 328.72 85.64 328.39 154.39 334.1 154.39 334.1 139.84 333.81 122.09 333.89 85.64 334.1 67.37 328.72 67.37"/><path d="M492.52,135.75c9.52,0,17.24,2.51,17.24,5.6,0-43.1-40.63-78-90.76-78s-90.77,34.94-90.77,78c0-3.09,7.72-5.6,17.25-5.6s17.24,2.51,17.24,5.6c0-3.09,7.72-5.6,17.25-5.6s17.24,2.51,17.24,5.6c0-3.91,9.76-7.07,21.79-7.07s21.78,3.16,21.78,7.07c0-3.09,7.72-5.6,17.25-5.6s17.24,2.51,17.24,5.6C475.27,138.26,483,135.75,492.52,135.75Z" transform="translate(-89.76 -61.84)"/><path class="cls-8" d="M362.72,141.35c0-66.74,56.28-78,56.28-78" transform="translate(-89.76 -61.84)"/><path class="cls-8" d="M397.21,141.35c0-81.11,21.79-75.58,21.79-75.58" transform="translate(-89.76 -61.84)"/><path class="cls-8" d="M440.78,141.35c0-81.11-21.78-75.58-21.78-75.58" transform="translate(-89.76 -61.84)"/><path class="cls-8" d="M475.27,142.54c0-66.74-56.27-78-56.27-78" transform="translate(-89.76 -61.84)"/></svg>